<?xml version="1.0" standalone="no"?>
<!DOCTYPE svg PUBLIC "-//W3C//DTD SVG 20010904//EN"
 "http://www.w3.org/TR/2001/REC-SVG-20010904/DTD/svg10.dtd">
<svg version="1.0" xmlns="http://www.w3.org/2000/svg"
 width="1847.000000pt" height="424.000000pt" viewBox="0 0 1847.000000 424.000000"
 preserveAspectRatio="xMidYMid meet">

<g transform="translate(0.000000,424.000000) scale(0.100000,-0.100000)"
fill="#000000" stroke="none">
<path d="M7040 2520 l0 -1710 290 0 290 0 0 115 c0 63 4 115 8 115 4 0 28 -21
52 -46 98 -100 228 -175 375 -215 67 -19 107 -22 250 -23 144 0 182 3 250 22
390 107 693 481 776 962 28 159 28 411 0 570 -74 428 -339 795 -663 920 -131
51 -200 63 -353 64 -255 1 -452 -64 -632 -211 -29 -24 -55 -43 -58 -43 -3 0
-5 268 -5 595 l0 595 -290 0 -290 0 0 -1710z m1303 223 c86 -25 148 -62 213
-127 133 -134 207 -391 190 -660 -17 -246 -75 -404 -191 -521 -105 -105 -209
-145 -380 -145 -158 0 -254 34 -352 124 -126 115 -191 267 -214 502 -19 194
11 391 81 539 85 177 212 277 390 305 70 11 196 3 263 -17z"/>
<path d="M9770 2520 l0 -1710 290 0 290 0 0 1710 0 1710 -290 0 -290 0 0
-1710z"/>
<path d="M15060 3635 c0 -327 -2 -595 -5 -595 -3 0 -30 20 -59 44 -273 222
-674 277 -1005 138 -293 -123 -542 -453 -626 -830 -47 -209 -51 -474 -10 -690
61 -318 256 -636 485 -792 150 -102 297 -149 490 -157 270 -11 474 60 652 226
36 33 68 61 72 61 3 0 6 -52 6 -115 l0 -115 285 0 285 0 0 1710 0 1710 -285 0
-285 0 0 -595z m-448 -879 c112 -20 195 -65 273 -147 144 -153 212 -407 185
-693 -21 -229 -86 -385 -207 -498 -96 -89 -205 -128 -358 -128 -170 0 -275 39
-376 142 -145 147 -221 426 -191 710 15 143 42 241 95 342 73 141 192 237 327
265 117 24 151 25 252 7z"/>
<path d="M360 3675 l0 -435 -175 0 -175 0 0 -210 0 -210 175 0 175 0 0 -769
c0 -855 1 -867 65 -997 61 -124 171 -206 335 -251 101 -28 375 -25 545 6 72
12 133 25 137 28 5 2 8 111 8 242 l0 237 -107 -13 c-280 -36 -376 11 -403 193
-5 40 -10 332 -10 697 l0 627 260 0 260 0 0 210 0 210 -257 2 -258 3 -3 433
-2 432 -285 0 -285 0 0 -435z"/>
<path d="M2540 3289 c-405 -45 -683 -228 -781 -513 -25 -71 -55 -253 -45 -264
2 -2 96 -7 208 -12 111 -5 239 -11 284 -14 l81 -5 6 72 c8 92 53 186 105 222
128 88 466 100 634 23 108 -50 157 -126 161 -254 l2 -79 -200 -47 c-110 -26
-321 -73 -470 -103 -301 -63 -407 -92 -511 -140 -211 -97 -350 -257 -401 -460
-23 -96 -23 -304 0 -400 10 -38 36 -108 59 -155 71 -144 224 -280 390 -347
225 -91 559 -81 815 26 83 34 191 96 257 146 26 19 50 35 55 35 4 0 11 -26 14
-59 2 -32 14 -79 25 -105 l21 -46 306 0 306 0 -15 28 c-7 15 -24 59 -37 97
l-23 70 -6 815 c-6 729 -8 823 -24 895 -74 332 -289 506 -702 565 -109 15
-411 21 -514 9z m658 -1481 c-4 -177 -8 -221 -24 -261 -63 -161 -257 -281
-501 -310 -205 -24 -374 43 -446 178 -17 32 -22 57 -22 125 0 99 19 144 84
203 79 71 152 96 492 167 130 28 272 63 315 79 44 16 85 29 93 30 11 1 12 -36
9 -211z"/>
<path d="M5095 3293 c-183 -21 -343 -81 -481 -179 -86 -61 -221 -207 -276
-301 -119 -201 -170 -411 -171 -698 0 -235 37 -421 117 -591 137 -289 367
-484 661 -560 87 -23 121 -27 260 -27 118 0 181 4 240 17 148 33 295 106 396
198 28 27 54 48 57 48 12 0 -8 -368 -23 -424 -42 -157 -136 -249 -310 -303
-47 -14 -93 -18 -215 -18 -178 0 -259 18 -346 78 -58 40 -118 116 -137 172
l-14 40 -303 3 -303 2 6 -76 c25 -294 259 -540 597 -628 144 -38 279 -50 485
-43 387 13 652 74 827 190 113 76 214 205 259 334 50 142 49 119 49 1459 l0
1254 -285 0 -285 0 0 -115 c0 -63 -3 -115 -6 -115 -3 0 -39 30 -79 68 -88 82
-161 126 -268 164 -130 46 -318 67 -452 51z m418 -550 c184 -54 323 -209 378
-422 28 -107 28 -296 0 -406 -74 -285 -272 -445 -551 -445 -200 0 -362 90
-463 256 -132 219 -140 518 -19 749 89 168 215 254 422 289 43 7 179 -5 233
-21z"/>
<path d="M11700 3289 c-406 -45 -683 -228 -781 -513 -25 -71 -55 -253 -45
-264 2 -2 96 -7 208 -12 111 -5 239 -11 284 -14 l81 -5 6 72 c8 92 53 186 105
222 128 88 466 100 634 23 108 -50 157 -126 161 -254 l2 -79 -200 -47 c-110
-26 -321 -73 -470 -103 -301 -63 -407 -92 -511 -140 -211 -97 -350 -257 -401
-460 -23 -94 -23 -303 1 -400 25 -104 88 -223 158 -300 152 -166 342 -251 585
-262 285 -13 566 71 777 232 26 19 50 35 55 35 4 0 11 -26 14 -59 2 -32 14
-79 25 -105 l21 -46 306 0 305 0 -20 41 c-12 22 -31 75 -43 117 -20 75 -21
100 -27 892 -7 914 -4 876 -82 1040 -32 67 -57 101 -117 160 -118 117 -261
180 -491 216 -119 18 -428 26 -540 13z m660 -1441 c0 -269 -19 -339 -120 -438
-164 -162 -514 -229 -706 -135 -62 30 -117 82 -146 138 -18 34 -23 58 -23 127
0 99 19 144 84 203 79 72 162 100 484 167 129 27 272 62 318 78 46 16 90 30
97 31 9 1 12 -40 12 -171z"/>
<path d="M17140 3294 c-82 -8 -211 -35 -294 -61 -406 -128 -690 -474 -771
-938 -21 -120 -24 -391 -6 -510 59 -386 261 -700 562 -876 94 -54 225 -103
350 -131 142 -30 461 -33 614 -4 265 49 485 156 665 323 71 65 203 230 197
247 -3 10 -466 287 -477 285 -3 0 -25 -25 -48 -55 -94 -118 -235 -210 -397
-256 -67 -19 -104 -23 -230 -23 -127 0 -161 3 -220 22 -229 72 -424 318 -425
536 l0 37 891 0 891 0 -7 123 c-8 146 -30 322 -51 414 -110 487 -378 762 -826
848 -82 16 -332 27 -418 19z m279 -489 c130 -31 249 -120 335 -249 37 -56 76
-157 76 -197 0 -18 -16 -19 -585 -19 -368 0 -585 4 -585 10 0 5 10 35 22 67
71 193 246 345 443 387 92 19 214 19 294 1z"/>
</g>
</svg>
